<mxfile host="app.diagrams.net" modified="2024-07-22T15:21:55.094Z" agent="Mozilla/5.0 (Windows NT 10.0; Win64; x64) AppleWebKit/537.36 (KHTML, like Gecko) Chrome/126.0.0.0 Safari/537.36" etag="e7yE1uYpVGNsRikNF5KV" version="24.7.2" type="device">
  <diagram name="Page-1" id="LJZ-xy-sotNfpSejq-3D">
    <mxGraphModel dx="880" dy="426" grid="0" gridSize="10" guides="1" tooltips="1" connect="1" arrows="1" fold="1" page="1" pageScale="1" pageWidth="827" pageHeight="1169" background="#CCFFFF" math="0" shadow="1">
      <root>
        <mxCell id="0" />
        <mxCell id="1" parent="0" />
        <mxCell id="Ax6TJU-ZQ2saelicUnMa-1" value="" style="image;aspect=fixed;html=1;points=[];align=center;fontSize=12;image=img/lib/azure2/containers/Container_Registries.svg;" vertex="1" parent="1">
          <mxGeometry x="32" y="199" width="68" height="61" as="geometry" />
        </mxCell>
        <mxCell id="Ax6TJU-ZQ2saelicUnMa-3" value="" style="image;aspect=fixed;html=1;points=[];align=center;fontSize=12;image=img/lib/azure2/containers/Container_Instances.svg;" vertex="1" parent="1">
          <mxGeometry x="488" y="504" width="47.3" height="51" as="geometry" />
        </mxCell>
        <mxCell id="Ax6TJU-ZQ2saelicUnMa-4" value="" style="image;aspect=fixed;html=1;points=[];align=center;fontSize=12;image=img/lib/azure2/containers/Container_Instances.svg;" vertex="1" parent="1">
          <mxGeometry x="187" y="508" width="46.38" height="50" as="geometry" />
        </mxCell>
        <mxCell id="Ax6TJU-ZQ2saelicUnMa-6" value="" style="image;aspect=fixed;html=1;points=[];align=center;fontSize=12;image=img/lib/azure2/analytics/Azure_Databricks.svg;" vertex="1" parent="1">
          <mxGeometry x="364" y="314" width="62.8" height="68" as="geometry" />
        </mxCell>
        <mxCell id="Ax6TJU-ZQ2saelicUnMa-7" value="" style="image;aspect=fixed;html=1;points=[];align=center;fontSize=12;image=img/lib/azure2/analytics/Azure_Synapse_Analytics.svg;" vertex="1" parent="1">
          <mxGeometry x="576" y="317" width="46.09" height="53" as="geometry" />
        </mxCell>
        <mxCell id="Ax6TJU-ZQ2saelicUnMa-8" value="" style="image;aspect=fixed;html=1;points=[];align=center;fontSize=12;image=img/lib/azure2/analytics/Power_BI_Embedded.svg;" vertex="1" parent="1">
          <mxGeometry x="756" y="430" width="51" height="68" as="geometry" />
        </mxCell>
        <mxCell id="Ax6TJU-ZQ2saelicUnMa-9" value="" style="swimlane;startSize=0;" vertex="1" parent="1">
          <mxGeometry x="11" y="152" width="105" height="120" as="geometry" />
        </mxCell>
        <mxCell id="Ax6TJU-ZQ2saelicUnMa-10" value="&lt;font style=&quot;font-size: 12px;&quot;&gt;&lt;b&gt;&lt;i&gt;Data Source&lt;/i&gt;&lt;/b&gt;&lt;/font&gt;" style="text;html=1;align=center;verticalAlign=middle;resizable=0;points=[];autosize=1;" vertex="1" parent="1">
          <mxGeometry x="25" y="151" width="88" height="26" as="geometry" />
        </mxCell>
        <mxCell id="Ax6TJU-ZQ2saelicUnMa-11" value="&lt;b&gt;kaggle&lt;/b&gt;" style="text;html=1;align=center;verticalAlign=middle;resizable=0;points=[];autosize=1;strokeColor=none;fillColor=none;strokeWidth=0;" vertex="1" parent="1">
          <mxGeometry x="12" y="249" width="56" height="26" as="geometry" />
        </mxCell>
        <mxCell id="Ax6TJU-ZQ2saelicUnMa-12" value="" style="swimlane;startSize=0;" vertex="1" parent="1">
          <mxGeometry x="168" y="284" width="110" height="124" as="geometry" />
        </mxCell>
        <mxCell id="Ax6TJU-ZQ2saelicUnMa-2" value="" style="image;aspect=fixed;html=1;points=[];align=center;fontSize=12;image=img/lib/azure2/databases/Data_Factory.svg;" vertex="1" parent="Ax6TJU-ZQ2saelicUnMa-12">
          <mxGeometry x="18" y="30" width="68" height="68" as="geometry" />
        </mxCell>
        <mxCell id="Ax6TJU-ZQ2saelicUnMa-13" value="&lt;font style=&quot;font-size: 12px;&quot;&gt;&lt;b&gt;&lt;i&gt;Data Integestion&lt;/i&gt;&lt;/b&gt;&lt;/font&gt;" style="text;html=1;align=center;verticalAlign=middle;resizable=0;points=[];autosize=1;strokeColor=none;fillColor=none;" vertex="1" parent="1">
          <mxGeometry x="175" y="280" width="111" height="26" as="geometry" />
        </mxCell>
        <mxCell id="Ax6TJU-ZQ2saelicUnMa-14" value="&lt;b&gt;Data Factory&lt;/b&gt;" style="text;html=1;align=center;verticalAlign=middle;resizable=0;points=[];autosize=1;strokeColor=none;fillColor=none;" vertex="1" parent="1">
          <mxGeometry x="174" y="387" width="91" height="26" as="geometry" />
        </mxCell>
        <mxCell id="Ax6TJU-ZQ2saelicUnMa-15" value="" style="swimlane;startSize=0;" vertex="1" parent="1">
          <mxGeometry x="167" y="476" width="108" height="114" as="geometry" />
        </mxCell>
        <mxCell id="Ax6TJU-ZQ2saelicUnMa-16" value="&lt;font style=&quot;font-size: 12px;&quot;&gt;&lt;b&gt;&lt;i&gt;Raw Data Store&lt;/i&gt;&lt;/b&gt;&lt;/font&gt;" style="text;html=1;align=center;verticalAlign=middle;resizable=0;points=[];autosize=1;strokeColor=none;fillColor=none;" vertex="1" parent="1">
          <mxGeometry x="176" y="476" width="106" height="26" as="geometry" />
        </mxCell>
        <mxCell id="Ax6TJU-ZQ2saelicUnMa-17" value="&lt;b&gt;Data Lake Gen2&lt;/b&gt;" style="text;html=1;align=center;verticalAlign=middle;resizable=0;points=[];autosize=1;strokeColor=none;fillColor=none;" vertex="1" parent="1">
          <mxGeometry x="165" y="569" width="108" height="26" as="geometry" />
        </mxCell>
        <mxCell id="Ax6TJU-ZQ2saelicUnMa-18" value="" style="swimlane;startSize=0;" vertex="1" parent="1">
          <mxGeometry x="466" y="470" width="116" height="123" as="geometry" />
        </mxCell>
        <mxCell id="Ax6TJU-ZQ2saelicUnMa-19" value="&lt;font style=&quot;font-size: 12px;&quot;&gt;&lt;b&gt;&lt;i&gt;Transformed&amp;nbsp; Data&lt;/i&gt;&lt;/b&gt;&lt;/font&gt;" style="text;html=1;align=center;verticalAlign=middle;resizable=0;points=[];autosize=1;strokeColor=none;fillColor=none;" vertex="1" parent="1">
          <mxGeometry x="465" y="469" width="124" height="26" as="geometry" />
        </mxCell>
        <mxCell id="Ax6TJU-ZQ2saelicUnMa-20" value="&lt;b&gt;Data Lake Gen2&lt;/b&gt;" style="text;html=1;align=center;verticalAlign=middle;resizable=0;points=[];autosize=1;strokeColor=none;fillColor=none;" vertex="1" parent="1">
          <mxGeometry x="467" y="573" width="108" height="26" as="geometry" />
        </mxCell>
        <mxCell id="Ax6TJU-ZQ2saelicUnMa-21" value="" style="swimlane;startSize=0;" vertex="1" parent="1">
          <mxGeometry x="363" y="281" width="119" height="130" as="geometry" />
        </mxCell>
        <mxCell id="Ax6TJU-ZQ2saelicUnMa-23" value="&lt;b&gt;Azure Databricks&lt;/b&gt;" style="text;html=1;align=center;verticalAlign=middle;resizable=0;points=[];autosize=1;strokeColor=none;fillColor=none;" vertex="1" parent="Ax6TJU-ZQ2saelicUnMa-21">
          <mxGeometry x="3" y="108" width="116" height="26" as="geometry" />
        </mxCell>
        <mxCell id="Ax6TJU-ZQ2saelicUnMa-22" value="&lt;font style=&quot;font-size: 12px;&quot;&gt;&lt;i&gt;&lt;b&gt;Transformation&lt;/b&gt;&lt;/i&gt;&lt;/font&gt;" style="text;html=1;align=center;verticalAlign=middle;resizable=0;points=[];autosize=1;strokeColor=none;fillColor=none;" vertex="1" parent="1">
          <mxGeometry x="371" y="279" width="106" height="26" as="geometry" />
        </mxCell>
        <mxCell id="Ax6TJU-ZQ2saelicUnMa-24" value="" style="swimlane;startSize=0;gradientColor=none;swimlaneFillColor=none;" vertex="1" parent="1">
          <mxGeometry x="573" y="281" width="107" height="127" as="geometry" />
        </mxCell>
        <mxCell id="Ax6TJU-ZQ2saelicUnMa-25" value="&lt;font style=&quot;font-size: 12px;&quot;&gt;&lt;i&gt;&lt;b&gt;Analytics&lt;/b&gt;&lt;/i&gt;&lt;/font&gt;" style="text;html=1;align=center;verticalAlign=middle;resizable=0;points=[];autosize=1;strokeColor=none;fillColor=none;" vertex="1" parent="1">
          <mxGeometry x="588" y="277" width="71" height="26" as="geometry" />
        </mxCell>
        <mxCell id="Ax6TJU-ZQ2saelicUnMa-26" value="&lt;font style=&quot;font-size: 11px;&quot;&gt;&lt;b&gt;Azure Synapse&amp;nbsp;&lt;/b&gt;&lt;/font&gt;&lt;div&gt;&lt;font style=&quot;font-size: 11px;&quot;&gt;&lt;b&gt;Analytics&lt;/b&gt;&lt;/font&gt;&lt;/div&gt;" style="text;html=1;align=center;verticalAlign=middle;resizable=0;points=[];autosize=1;strokeColor=none;fillColor=none;" vertex="1" parent="1">
          <mxGeometry x="577" y="373" width="100" height="41" as="geometry" />
        </mxCell>
        <mxCell id="Ax6TJU-ZQ2saelicUnMa-27" value="&lt;b&gt;Power BI Dashboard&lt;/b&gt;" style="text;html=1;align=center;verticalAlign=middle;resizable=0;points=[];autosize=1;strokeColor=none;fillColor=none;" vertex="1" parent="1">
          <mxGeometry x="693" y="499" width="135" height="26" as="geometry" />
        </mxCell>
        <mxCell id="Ax6TJU-ZQ2saelicUnMa-28" value="" style="swimlane;startSize=0;" vertex="1" parent="1">
          <mxGeometry x="697" y="423" width="124.09" height="106" as="geometry">
            <mxRectangle x="697" y="423" width="50" height="44" as="alternateBounds" />
          </mxGeometry>
        </mxCell>
        <mxCell id="Ax6TJU-ZQ2saelicUnMa-29" value="" style="endArrow=classic;html=1;rounded=0;entryX=0.514;entryY=0.188;entryDx=0;entryDy=0;entryPerimeter=0;" edge="1" parent="1" target="Ax6TJU-ZQ2saelicUnMa-13">
          <mxGeometry width="50" height="50" relative="1" as="geometry">
            <mxPoint x="118" y="215" as="sourcePoint" />
            <mxPoint x="168" y="165" as="targetPoint" />
            <Array as="points">
              <mxPoint x="232" y="215" />
            </Array>
          </mxGeometry>
        </mxCell>
        <mxCell id="Ax6TJU-ZQ2saelicUnMa-30" value="" style="endArrow=classic;html=1;rounded=0;exitX=0.651;exitY=1.231;exitDx=0;exitDy=0;exitPerimeter=0;" edge="1" parent="1">
          <mxGeometry width="50" height="50" relative="1" as="geometry">
            <mxPoint x="227.24099999999976" y="411.006" as="sourcePoint" />
            <mxPoint x="227" y="479" as="targetPoint" />
          </mxGeometry>
        </mxCell>
        <mxCell id="Ax6TJU-ZQ2saelicUnMa-31" value="" style="endArrow=classic;html=1;rounded=0;entryX=-0.065;entryY=0.554;entryDx=0;entryDy=0;entryPerimeter=0;edgeStyle=orthogonalEdgeStyle;" edge="1" parent="1">
          <mxGeometry width="50" height="50" relative="1" as="geometry">
            <mxPoint x="279" y="537.2" as="sourcePoint" />
            <mxPoint x="356.5899999999999" y="343.00399999999996" as="targetPoint" />
            <Array as="points">
              <mxPoint x="317" y="537" />
              <mxPoint x="317" y="343" />
            </Array>
          </mxGeometry>
        </mxCell>
        <mxCell id="Ax6TJU-ZQ2saelicUnMa-32" value="" style="endArrow=classic;html=1;rounded=0;entryX=0.522;entryY=-0.113;entryDx=0;entryDy=0;entryPerimeter=0;edgeStyle=orthogonalEdgeStyle;" edge="1" parent="1" target="Ax6TJU-ZQ2saelicUnMa-19">
          <mxGeometry width="50" height="50" relative="1" as="geometry">
            <mxPoint x="481" y="348" as="sourcePoint" />
            <mxPoint x="531" y="298" as="targetPoint" />
            <Array as="points">
              <mxPoint x="530" y="348" />
            </Array>
          </mxGeometry>
        </mxCell>
        <mxCell id="Ax6TJU-ZQ2saelicUnMa-35" value="" style="endArrow=classic;html=1;rounded=0;entryX=0.515;entryY=1.093;entryDx=0;entryDy=0;entryPerimeter=0;edgeStyle=orthogonalEdgeStyle;" edge="1" parent="1" target="Ax6TJU-ZQ2saelicUnMa-26">
          <mxGeometry width="50" height="50" relative="1" as="geometry">
            <mxPoint x="582" y="545" as="sourcePoint" />
            <mxPoint x="632" y="495" as="targetPoint" />
            <Array as="points">
              <mxPoint x="629" y="545" />
            </Array>
          </mxGeometry>
        </mxCell>
        <mxCell id="Ax6TJU-ZQ2saelicUnMa-36" value="" style="endArrow=classic;html=1;rounded=0;entryX=0.586;entryY=-0.06;entryDx=0;entryDy=0;entryPerimeter=0;edgeStyle=orthogonalEdgeStyle;" edge="1" parent="1" target="Ax6TJU-ZQ2saelicUnMa-28">
          <mxGeometry width="50" height="50" relative="1" as="geometry">
            <mxPoint x="680" y="346" as="sourcePoint" />
            <mxPoint x="730" y="296" as="targetPoint" />
          </mxGeometry>
        </mxCell>
      </root>
    </mxGraphModel>
  </diagram>
</mxfile>
